<svg id="visual" viewBox="0 0 2400 800" width="2400" height="800" xmlns="http://www.w3.org/2000/svg" xmlns:xlink="http://www.w3.org/1999/xlink" version="1.1"><rect x="0" y="0" width="2400" height="800" fill="#001220"></rect><path d="M0 516L80 526.2C160 536.3 320 556.7 480 580.8C640 605 800 633 960 614.8C1120 596.7 1280 532.3 1440 499C1600 465.7 1760 463.3 1920 477.5C2080 491.7 2240 522.3 2320 537.7L2400 553L2400 0L2320 0C2240 0 2080 0 1920 0C1760 0 1600 0 1440 0C1280 0 1120 0 960 0C800 0 640 0 480 0C320 0 160 0 80 0L0 0Z" fill="#fa7268"></path><path d="M0 479L80 490.5C160 502 320 525 480 513C640 501 800 454 960 436.2C1120 418.3 1280 429.7 1440 456C1600 482.3 1760 523.7 1920 536.8C2080 550 2240 535 2320 527.5L2400 520L2400 0L2320 0C2240 0 2080 0 1920 0C1760 0 1600 0 1440 0C1280 0 1120 0 960 0C800 0 640 0 480 0C320 0 160 0 80 0L0 0Z" fill="#f36567"></path><path d="M0 448L80 427.5C160 407 320 366 480 341.7C640 317.3 800 309.7 960 327.7C1120 345.7 1280 389.3 1440 412C1600 434.7 1760 436.3 1920 416.5C2080 396.7 2240 355.3 2320 334.7L2400 314L2400 0L2320 0C2240 0 2080 0 1920 0C1760 0 1600 0 1440 0C1280 0 1120 0 960 0C800 0 640 0 480 0C320 0 160 0 80 0L0 0Z" fill="#eb5967"></path><path d="M0 269L80 282.2C160 295.3 320 321.7 480 339.8C640 358 800 368 960 368.3C1120 368.7 1280 359.3 1440 344.8C1600 330.3 1760 310.7 1920 308.3C2080 306 2240 321 2320 328.5L2400 336L2400 0L2320 0C2240 0 2080 0 1920 0C1760 0 1600 0 1440 0C1280 0 1120 0 960 0C800 0 640 0 480 0C320 0 160 0 80 0L0 0Z" fill="#e34c67"></path><path d="M0 301L80 297.8C160 294.7 320 288.3 480 277.2C640 266 800 250 960 255.7C1120 261.3 1280 288.7 1440 295.5C1600 302.3 1760 288.7 1920 280.3C2080 272 2240 269 2320 267.5L2400 266L2400 0L2320 0C2240 0 2080 0 1920 0C1760 0 1600 0 1440 0C1280 0 1120 0 960 0C800 0 640 0 480 0C320 0 160 0 80 0L0 0Z" fill="#da3f67"></path><path d="M0 221L80 217C160 213 320 205 480 202.2C640 199.3 800 201.7 960 204.8C1120 208 1280 212 1440 215.2C1600 218.3 1760 220.7 1920 201.5C2080 182.3 2240 141.7 2320 121.3L2400 101L2400 0L2320 0C2240 0 2080 0 1920 0C1760 0 1600 0 1440 0C1280 0 1120 0 960 0C800 0 640 0 480 0C320 0 160 0 80 0L0 0Z" fill="#d03267"></path><path d="M0 59L80 70.8C160 82.7 320 106.3 480 116.8C640 127.3 800 124.7 960 116C1120 107.3 1280 92.7 1440 85.7C1600 78.7 1760 79.3 1920 84.7C2080 90 2240 100 2320 105L2400 110L2400 0L2320 0C2240 0 2080 0 1920 0C1760 0 1600 0 1440 0C1280 0 1120 0 960 0C800 0 640 0 480 0C320 0 160 0 80 0L0 0Z" fill="#c62368"></path></svg>