<svg id="visual" viewBox="0 0 2400 2400" width="2400" height="2400" xmlns="http://www.w3.org/2000/svg" xmlns:xlink="http://www.w3.org/1999/xlink" version="1.1"><rect x="0" y="0" width="2400" height="2400" fill="#001220"></rect><path d="M0 942L80 915.8C160 889.7 320 837.3 480 854.7C640 872 800 959 960 977.2C1120 995.3 1280 944.7 1440 884.7C1600 824.7 1760 755.3 1920 786.3C2080 817.3 2240 948.7 2320 1014.3L2400 1080L2400 2401L2320 2401C2240 2401 2080 2401 1920 2401C1760 2401 1600 2401 1440 2401C1280 2401 1120 2401 960 2401C800 2401 640 2401 480 2401C320 2401 160 2401 80 2401L0 2401Z" fill="#fa7268"></path><path d="M0 1150L80 1089.2C160 1028.3 320 906.7 480 932.3C640 958 800 1131 960 1214.8C1120 1298.7 1280 1293.3 1440 1225.3C1600 1157.3 1760 1026.7 1920 933.7C2080 840.7 2240 785.3 2320 757.7L2400 730L2400 2401L2320 2401C2240 2401 2080 2401 1920 2401C1760 2401 1600 2401 1440 2401C1280 2401 1120 2401 960 2401C800 2401 640 2401 480 2401C320 2401 160 2401 80 2401L0 2401Z" fill="#f36567"></path><path d="M0 1326L80 1304.5C160 1283 320 1240 480 1244.5C640 1249 800 1301 960 1289.3C1120 1277.7 1280 1202.3 1440 1132.2C1600 1062 1760 997 1920 1058.2C2080 1119.3 2240 1306.7 2320 1400.3L2400 1494L2400 2401L2320 2401C2240 2401 2080 2401 1920 2401C1760 2401 1600 2401 1440 2401C1280 2401 1120 2401 960 2401C800 2401 640 2401 480 2401C320 2401 160 2401 80 2401L0 2401Z" fill="#eb5967"></path><path d="M0 1186L80 1278.7C160 1371.3 320 1556.7 480 1591.5C640 1626.3 800 1510.7 960 1461.3C1120 1412 1280 1429 1440 1432.5C1600 1436 1760 1426 1920 1443.5C2080 1461 2240 1506 2320 1528.5L2400 1551L2400 2401L2320 2401C2240 2401 2080 2401 1920 2401C1760 2401 1600 2401 1440 2401C1280 2401 1120 2401 960 2401C800 2401 640 2401 480 2401C320 2401 160 2401 80 2401L0 2401Z" fill="#e34c67"></path><path d="M0 1880L80 1841C160 1802 320 1724 480 1730.7C640 1737.3 800 1828.7 960 1842.8C1120 1857 1280 1794 1440 1712.8C1600 1631.7 1760 1532.3 1920 1494.8C2080 1457.3 2240 1481.7 2320 1493.8L2400 1506L2400 2401L2320 2401C2240 2401 2080 2401 1920 2401C1760 2401 1600 2401 1440 2401C1280 2401 1120 2401 960 2401C800 2401 640 2401 480 2401C320 2401 160 2401 80 2401L0 2401Z" fill="#da3f67"></path><path d="M0 1880L80 1878C160 1876 320 1872 480 1905.3C640 1938.7 800 2009.3 960 1994.7C1120 1980 1280 1880 1440 1841.7C1600 1803.3 1760 1826.7 1920 1816.3C2080 1806 2240 1762 2320 1740L2400 1718L2400 2401L2320 2401C2240 2401 2080 2401 1920 2401C1760 2401 1600 2401 1440 2401C1280 2401 1120 2401 960 2401C800 2401 640 2401 480 2401C320 2401 160 2401 80 2401L0 2401Z" fill="#d03267"></path><path d="M0 2155L80 2154.2C160 2153.3 320 2151.7 480 2146.7C640 2141.7 800 2133.3 960 2146C1120 2158.7 1280 2192.3 1440 2161C1600 2129.7 1760 2033.3 1920 2027.2C2080 2021 2240 2105 2320 2147L2400 2189L2400 2401L2320 2401C2240 2401 2080 2401 1920 2401C1760 2401 1600 2401 1440 2401C1280 2401 1120 2401 960 2401C800 2401 640 2401 480 2401C320 2401 160 2401 80 2401L0 2401Z" fill="#c62368"></path></svg>