<svg id="visual" viewBox="0 0 900 600" width="900" height="600" xmlns="http://www.w3.org/2000/svg" xmlns:xlink="http://www.w3.org/1999/xlink" version="1.1"><rect x="0" y="0" width="900" height="600" fill="#001220"></rect><path d="M0 211L30 203.3C60 195.7 120 180.3 180 162.2C240 144 300 123 360 136.7C420 150.3 480 198.7 540 223.8C600 249 660 251 720 240.3C780 229.7 840 206.3 870 194.7L900 183L900 601L870 601C840 601 780 601 720 601C660 601 600 601 540 601C480 601 420 601 360 601C300 601 240 601 180 601C120 601 60 601 30 601L0 601Z" fill="#fa7268"></path><path d="M0 239L30 230.3C60 221.7 120 204.3 180 213.3C240 222.3 300 257.7 360 271.2C420 284.7 480 276.3 540 256.7C600 237 660 206 720 196C780 186 840 197 870 202.5L900 208L900 601L870 601C840 601 780 601 720 601C660 601 600 601 540 601C480 601 420 601 360 601C300 601 240 601 180 601C120 601 60 601 30 601L0 601Z" fill="#f36567"></path><path d="M0 262L30 277.3C60 292.7 120 323.3 180 341.7C240 360 300 366 360 352.5C420 339 480 306 540 289C600 272 660 271 720 286C780 301 840 332 870 347.5L900 363L900 601L870 601C840 601 780 601 720 601C660 601 600 601 540 601C480 601 420 601 360 601C300 601 240 601 180 601C120 601 60 601 30 601L0 601Z" fill="#eb5967"></path><path d="M0 397L30 387.2C60 377.3 120 357.7 180 344C240 330.3 300 322.7 360 322.3C420 322 480 329 540 339.8C600 350.7 660 365.3 720 367C780 368.7 840 357.3 870 351.7L900 346L900 601L870 601C840 601 780 601 720 601C660 601 600 601 540 601C480 601 420 601 360 601C300 601 240 601 180 601C120 601 60 601 30 601L0 601Z" fill="#e34c67"></path><path d="M0 372L30 374.5C60 377 120 382 180 390.5C240 399 300 411 360 406.7C420 402.3 480 381.7 540 376.5C600 371.3 660 381.7 720 387.8C780 394 840 396 870 397L900 398L900 601L870 601C840 601 780 601 720 601C660 601 600 601 540 601C480 601 420 601 360 601C300 601 240 601 180 601C120 601 60 601 30 601L0 601Z" fill="#da3f67"></path><path d="M0 432L30 435C60 438 120 444 180 446.2C240 448.3 300 446.7 360 444.3C420 442 480 439 540 436.7C600 434.3 660 432.7 720 447C780 461.3 840 491.7 870 506.8L900 522L900 601L870 601C840 601 780 601 720 601C660 601 600 601 540 601C480 601 420 601 360 601C300 601 240 601 180 601C120 601 60 601 30 601L0 601Z" fill="#d03267"></path><path d="M0 554L30 545.2C60 536.3 120 518.7 180 510.8C240 503 300 505 360 511.5C420 518 480 529 540 534.2C600 539.3 660 538.7 720 534.7C780 530.7 840 523.3 870 519.7L900 516L900 601L870 601C840 601 780 601 720 601C660 601 600 601 540 601C480 601 420 601 360 601C300 601 240 601 180 601C120 601 60 601 30 601L0 601Z" fill="#c62368"></path></svg>