<svg id="visual" viewBox="0 0 2400 2400" width="2400" height="2400" xmlns="http://www.w3.org/2000/svg" xmlns:xlink="http://www.w3.org/1999/xlink" version="1.1"><rect x="0" y="0" width="2400" height="2400" fill="#000D18"></rect><g transform="translate(2194.037741620446 2457.571688525434)"><path d="M1199.7 -2011.5C1589.4 -1853 1963.8 -1601.5 2144.8 -1250.7C2325.8 -900 2313.4 -450 2281.2 -18.6C2249 412.8 2197.1 825.7 1926.1 1020.5C1655.1 1215.4 1165.1 1192.3 807.5 1355.7C450 1519.1 225 1869 -74.9 1998.8C-374.8 2128.6 -749.7 2038.1 -1104.9 1873.4C-1460.1 1708.6 -1795.7 1469.6 -1870.8 1144.9C-1945.9 820.3 -1760.4 410.2 -1705.3 31.8C-1650.2 -346.5 -1725.3 -693 -1592.6 -917.7C-1459.8 -1142.5 -1119.2 -1245.4 -819.1 -1455.7C-519 -1665.9 -259.5 -1983.5 72.7 -2109.5C405 -2235.5 810 -2170 1199.7 -2011.5" fill="#FA7268"></path></g></svg>