<svg id="visual" viewBox="0 0 2400 800" width="2400" height="800" xmlns="http://www.w3.org/2000/svg" xmlns:xlink="http://www.w3.org/1999/xlink" version="1.1"><rect x="0" y="0" width="2400" height="800" fill="#001220"></rect><path d="M0 282L80 271.8C160 261.7 320 241.3 480 217.2C640 193 800 165 960 183.2C1120 201.3 1280 265.7 1440 299C1600 332.3 1760 334.7 1920 320.5C2080 306.3 2240 275.7 2320 260.3L2400 245L2400 801L2320 801C2240 801 2080 801 1920 801C1760 801 1600 801 1440 801C1280 801 1120 801 960 801C800 801 640 801 480 801C320 801 160 801 80 801L0 801Z" fill="#fa7268"></path><path d="M0 319L80 307.5C160 296 320 273 480 285C640 297 800 344 960 361.8C1120 379.7 1280 368.3 1440 342C1600 315.7 1760 274.3 1920 261.2C2080 248 2240 263 2320 270.5L2400 278L2400 801L2320 801C2240 801 2080 801 1920 801C1760 801 1600 801 1440 801C1280 801 1120 801 960 801C800 801 640 801 480 801C320 801 160 801 80 801L0 801Z" fill="#f36567"></path><path d="M0 350L80 370.5C160 391 320 432 480 456.3C640 480.7 800 488.3 960 470.3C1120 452.3 1280 408.7 1440 386C1600 363.3 1760 361.7 1920 381.5C2080 401.3 2240 442.7 2320 463.3L2400 484L2400 801L2320 801C2240 801 2080 801 1920 801C1760 801 1600 801 1440 801C1280 801 1120 801 960 801C800 801 640 801 480 801C320 801 160 801 80 801L0 801Z" fill="#eb5967"></path><path d="M0 529L80 515.8C160 502.7 320 476.3 480 458.2C640 440 800 430 960 429.7C1120 429.3 1280 438.7 1440 453.2C1600 467.7 1760 487.3 1920 489.7C2080 492 2240 477 2320 469.5L2400 462L2400 801L2320 801C2240 801 2080 801 1920 801C1760 801 1600 801 1440 801C1280 801 1120 801 960 801C800 801 640 801 480 801C320 801 160 801 80 801L0 801Z" fill="#e34c67"></path><path d="M0 497L80 500.2C160 503.3 320 509.7 480 520.8C640 532 800 548 960 542.3C1120 536.7 1280 509.3 1440 502.5C1600 495.7 1760 509.3 1920 517.7C2080 526 2240 529 2320 530.5L2400 532L2400 801L2320 801C2240 801 2080 801 1920 801C1760 801 1600 801 1440 801C1280 801 1120 801 960 801C800 801 640 801 480 801C320 801 160 801 80 801L0 801Z" fill="#da3f67"></path><path d="M0 577L80 581C160 585 320 593 480 595.8C640 598.7 800 596.3 960 593.2C1120 590 1280 586 1440 582.8C1600 579.7 1760 577.3 1920 596.5C2080 615.7 2240 656.3 2320 676.7L2400 697L2400 801L2320 801C2240 801 2080 801 1920 801C1760 801 1600 801 1440 801C1280 801 1120 801 960 801C800 801 640 801 480 801C320 801 160 801 80 801L0 801Z" fill="#d03267"></path><path d="M0 739L80 727.2C160 715.3 320 691.7 480 681.2C640 670.7 800 673.3 960 682C1120 690.7 1280 705.3 1440 712.3C1600 719.3 1760 718.7 1920 713.3C2080 708 2240 698 2320 693L2400 688L2400 801L2320 801C2240 801 2080 801 1920 801C1760 801 1600 801 1440 801C1280 801 1120 801 960 801C800 801 640 801 480 801C320 801 160 801 80 801L0 801Z" fill="#c62368"></path></svg>